<svg xmlns="http://www.w3.org/2000/svg" width="22" height="26" viewBox="0 0 22 26" fill="none"><path d="M1.02988 17.1637C1.01458 17.1645 0.999242 17.163 0.984376 17.1593V18.5025C1.519 18.5033 2.723 18.5016 3.26725 18.5025V17.1637C2.73656 17.165 1.54963 17.1628 1.02988 17.1637ZM0.984376 14.4635V16.2607C0.999242 16.257 1.01458 16.2555 1.02988 16.2563C1.54569 16.2576 2.7405 16.255 3.26725 16.2563C3.26463 15.7147 3.269 14.5413 3.26725 14.0098H1.4385C1.31821 14.01 1.2029 14.0579 1.1178 14.1429C1.03269 14.2279 0.984723 14.3432 0.984376 14.4635ZM6.412 16.2559C6.4273 16.2551 6.44264 16.2566 6.4575 16.2603V14.4635C6.45715 14.3432 6.40924 14.228 6.32424 14.143C6.23923 14.058 6.12403 14.0101 6.00381 14.0098H4.17506V16.2559C4.70531 16.2537 5.89269 16.2576 6.412 16.2559ZM0.984376 19.4098V21.3436C0.98426 21.4032 0.995934 21.4623 1.01873 21.5174C1.04152 21.5725 1.07498 21.6225 1.11718 21.6646C1.15938 21.7068 1.2095 21.7401 1.26464 21.7628C1.31979 21.7855 1.37887 21.7971 1.4385 21.7968H3.26725V19.4098C2.71994 19.4125 1.52163 19.4081 0.984376 19.4098ZM4.17506 19.4098C4.17769 19.9725 4.17288 21.2469 4.17506 21.7968H6.00381C6.06344 21.797 6.12251 21.7854 6.17764 21.7626C6.23276 21.7399 6.28284 21.7065 6.32501 21.6643C6.36717 21.6222 6.40058 21.5721 6.42332 21.517C6.44606 21.4618 6.45767 21.4028 6.4575 21.3431V19.4098C5.92375 19.4085 4.71888 19.4111 4.17506 19.4098ZM15.5426 14.4635V16.2559C16.0764 16.2576 17.2817 16.255 17.8255 16.2559C17.8229 15.7147 17.8268 14.5418 17.8255 14.0098H15.9968C15.8765 14.01 15.7611 14.0579 15.676 14.1429C15.5909 14.2279 15.543 14.3432 15.5426 14.4635Z" fill="#ED2A00"></path><path d="M15.5433 17.1637V17.4131H13.6328V15.0086H12.7254C12.774 14.9465 9.20134 15.0055 9.20353 14.9858V15.0086H8.29616V17.4148H6.45822V17.1593C6.44335 17.163 6.42802 17.1645 6.41272 17.1637H4.17578V18.5025C4.73491 18.5007 5.91266 18.5046 6.45866 18.5025V18.3231H8.29616V20.8216H13.6337V18.3213H15.5438V18.5029C16.0858 18.5042 17.2767 18.5016 17.8267 18.5029V17.1641H15.5438L15.5433 17.1637ZM20.5623 14.0098H18.7336C18.7323 14.5391 18.7345 15.7178 18.7336 16.2559C19.2809 16.2537 20.4792 16.2576 21.016 16.2559V14.4635C21.0157 14.3432 20.9678 14.228 20.8828 14.143C20.7978 14.058 20.6826 14.0101 20.5623 14.0098Z" fill="#ED2A00"></path><path d="M15.5421 19.4092V21.343C15.5419 21.4026 15.5536 21.4616 15.5764 21.5167C15.5991 21.5717 15.6326 21.6218 15.6747 21.6639C15.7169 21.706 15.7669 21.7394 15.822 21.7621C15.8771 21.7848 15.9362 21.7964 15.9957 21.7962H17.8245V19.4092C17.2776 19.4118 16.0789 19.4075 15.5421 19.4092ZM18.7323 17.1631V18.5018C19.2796 18.5005 20.4779 18.5027 21.0148 18.5018V17.1631C20.481 17.1622 19.2761 17.1635 18.7323 17.1631ZM18.7323 19.4092C18.7349 19.9718 18.7306 21.2463 18.7323 21.7962H20.5611C20.6207 21.7964 20.6798 21.7848 20.7349 21.762C20.79 21.7393 20.8401 21.7059 20.8823 21.6637C20.9244 21.6216 20.9578 21.5715 20.9806 21.5164C21.0033 21.4612 21.0149 21.4022 21.0148 21.3425V19.4092C20.481 19.4079 19.2761 19.4105 18.7323 19.4092ZM10.5095 11.2367C9.85444 11.3557 9.26761 11.7155 8.86442 12.2453C8.46124 12.7751 8.27086 13.4366 8.33075 14.0997H8.61688C8.94325 14.0962 12.2674 14.1023 12.6878 14.0997C12.8724 14.0923 13.4162 14.1054 13.5952 14.0997C13.6287 13.7099 13.5776 13.3175 13.4452 12.9494C13.3128 12.5812 13.1024 12.2461 12.8283 11.9669C12.4457 11.5827 11.9528 11.3273 11.4182 11.2363V10.528C11.7821 10.4277 12.0978 10.1999 12.3077 9.88616C12.5176 9.57246 12.6077 9.19374 12.5616 8.81912C12.5155 8.44449 12.3362 8.09893 12.0565 7.84548C11.7768 7.59203 11.4153 7.44758 11.038 7.4385C10.6606 7.42941 10.2926 7.5563 10.001 7.79599C9.70944 8.03569 9.51376 8.37223 9.44968 8.7442C9.3856 9.11618 9.45739 9.49879 9.65195 9.82223C9.84651 10.1457 10.1509 10.3884 10.5095 10.5061C10.5113 10.5039 10.5117 11.238 10.5095 11.2367ZM13.9491 21.7284H7.97725L8.77131 23.548H13.1551L13.9491 21.7284ZM6.85156 24.5236H15.0744V25.2498H6.85156V24.5236ZM14.0331 7.29616C14.1214 7.29477 14.2075 7.26781 14.2808 7.21854C14.3541 7.16927 14.4115 7.0998 14.4461 7.01855C14.4808 6.93729 14.4911 6.84774 14.4759 6.76074C14.4607 6.67373 14.4205 6.59301 14.3604 6.52834C13.4716 5.60423 12.2525 5.07041 10.9707 5.044C9.68878 5.01759 8.44877 5.50075 7.52269 6.38747C7.43768 6.47127 7.38909 6.58517 7.38742 6.70453C7.38576 6.82389 7.43115 6.9391 7.51379 7.02524C7.59642 7.11138 7.70965 7.16152 7.82897 7.16482C7.94829 7.16811 8.06411 7.1243 8.15138 7.04285C8.90349 6.32243 9.91067 5.92981 10.9519 5.95114C11.9932 5.97246 12.9835 6.40599 13.7054 7.15659C13.7478 7.20084 13.7986 7.23603 13.855 7.26002C13.9113 7.28401 13.9719 7.2963 14.0331 7.29616Z" fill="#ED2A00"></path><path d="M15.567 5.82363C15.6553 5.82233 15.7414 5.79543 15.8148 5.74619C15.8882 5.69695 15.9457 5.62749 15.9804 5.54622C16.015 5.46495 16.0254 5.37536 16.0102 5.28832C15.995 5.20128 15.9549 5.12051 15.8947 5.05582C14.615 3.72564 12.86 2.95733 11.0146 2.91944C9.1692 2.88155 7.38412 3.57716 6.05093 4.85369C5.96951 4.9382 5.92396 5.05094 5.92383 5.16829C5.9237 5.28564 5.969 5.39848 6.05023 5.48316C6.13146 5.56785 6.24233 5.6178 6.35958 5.62255C6.47683 5.6273 6.59137 5.58647 6.67918 5.50863C7.83845 4.39852 9.39069 3.79351 10.9954 3.82632C12.6002 3.85913 14.1264 4.52707 15.2393 5.68363C15.2816 5.72796 15.3324 5.76323 15.3888 5.78729C15.4451 5.81136 15.5057 5.82372 15.567 5.82363Z" fill="#ED2A00"></path><path d="M5.17628 3.94376C6.75099 2.43552 8.85971 1.61357 11.0397 1.65827C13.2198 1.70297 15.293 2.61067 16.8046 4.1822C16.8891 4.26362 17.0018 4.30917 17.1192 4.3093C17.2365 4.30943 17.3494 4.26413 17.4341 4.1829C17.5187 4.10167 17.5687 3.9908 17.5734 3.87355C17.5782 3.7563 17.5374 3.64176 17.4595 3.55395C15.781 1.80931 13.4791 0.801631 11.0586 0.751929C8.63812 0.702227 6.29674 1.61456 4.54802 3.28882C4.46529 3.3731 4.41864 3.48631 4.41798 3.60441C4.41731 3.72252 4.46269 3.83623 4.54448 3.92144C4.62627 4.00664 4.73804 4.05663 4.85607 4.0608C4.9741 4.06496 5.08868 4.02298 5.17628 3.94376Z" fill="#ED2A00"></path></svg>