<svg xmlns="http://www.w3.org/2000/svg" width="28" height="28" viewBox="0 0 28 28" fill="none"><path d="M13.9997 9.33346C14.5152 9.33346 14.9331 8.9156 14.9331 8.40013C14.9331 7.88466 14.5152 7.4668 13.9997 7.4668C13.4843 7.4668 13.0664 7.88466 13.0664 8.40013C13.0664 8.9156 13.4843 9.33346 13.9997 9.33346Z" fill="#ED2A00"></path><path d="M13.9996 14.9328C14.7728 14.9328 15.3996 14.306 15.3996 13.5328C15.3996 12.7596 14.7728 12.1328 13.9996 12.1328C13.2264 12.1328 12.5996 12.7596 12.5996 13.5328C12.5996 14.306 13.2264 14.9328 13.9996 14.9328Z" fill="#ED2A00"></path><path d="M10.7334 20.9996H12.4134L12.1423 18.5165C12.1198 18.303 12.1424 18.0871 12.2088 17.8829C12.2751 17.6787 12.3836 17.4907 12.5273 17.3311C12.6785 17.1636 12.8632 17.0297 13.0695 16.9381C13.2758 16.8465 13.499 16.7994 13.7247 16.7996H14.2754C14.5013 16.7992 14.7248 16.8462 14.9314 16.9378C15.1379 17.0294 15.3229 17.1634 15.4743 17.3311C15.6179 17.4907 15.7265 17.6787 15.7928 17.8829C15.8591 18.0871 15.8818 18.303 15.8593 18.5165L15.5867 20.9996H17.2667C17.3239 21.0023 17.3803 20.986 17.4271 20.9531C17.4739 20.9203 17.5084 20.8727 17.5253 20.8181C18.2965 17.6831 18.6799 14.4653 18.6667 11.2369C18.7049 9.15835 17.9511 7.14304 16.5583 5.59961H11.4418C10.0491 7.14311 9.29542 9.15837 9.3334 11.2369C9.32037 14.4636 9.70325 17.6796 10.4735 20.8129C10.4896 20.8687 10.524 20.9174 10.5712 20.9512C10.6183 20.9851 10.6754 21.0021 10.7334 20.9996ZM14.0001 6.53294C14.3693 6.53294 14.7302 6.64242 15.0371 6.84753C15.3441 7.05264 15.5834 7.34418 15.7246 7.68527C15.8659 8.02636 15.9029 8.40168 15.8309 8.76378C15.7588 9.12588 15.5811 9.45848 15.32 9.71954C15.0589 9.9806 14.7263 10.1584 14.3642 10.2304C14.0021 10.3024 13.6268 10.2655 13.2857 10.1242C12.9446 9.9829 12.6531 9.74365 12.448 9.43667C12.2429 9.1297 12.1334 8.7688 12.1334 8.39961C12.1334 7.90454 12.3301 7.42974 12.6801 7.07968C13.0302 6.72961 13.505 6.53294 14.0001 6.53294ZM14.0001 11.1996C14.4616 11.1996 14.9127 11.3365 15.2964 11.5928C15.6801 11.8492 15.9792 12.2137 16.1558 12.64C16.3324 13.0664 16.3786 13.5355 16.2886 13.9882C16.1985 14.4408 15.9763 14.8565 15.65 15.1829C15.3237 15.5092 14.9079 15.7314 14.4553 15.8214C14.0027 15.9115 13.5335 15.8653 13.1071 15.6887C12.6808 15.5121 12.3164 15.213 12.06 14.8293C11.8036 14.4456 11.6667 13.9944 11.6667 13.5329C11.6675 12.9143 11.9135 12.3213 12.351 11.8838C12.7884 11.4464 13.3815 11.2004 14.0001 11.1996Z" fill="#ED2A00"></path><path d="M14.2758 17.7333H13.7252C13.6303 17.7329 13.5364 17.7523 13.4496 17.7905C13.3628 17.8287 13.2849 17.8848 13.2212 17.955C13.1644 18.0165 13.1215 18.0894 13.0953 18.1688C13.069 18.2483 13.0601 18.3324 13.069 18.4156L13.6043 23.3133C13.7368 23.3189 13.8666 23.3333 14.0005 23.3333C14.1344 23.3333 14.2642 23.3189 14.3967 23.3133L14.9338 18.4156C14.9428 18.3324 14.9338 18.2483 14.9076 18.1688C14.8814 18.0894 14.8384 18.0165 14.7817 17.955C14.7177 17.8845 14.6396 17.8284 14.5524 17.7902C14.4653 17.752 14.371 17.7326 14.2758 17.7333ZM9.0879 21.9207L9.72397 21.3911C9.65691 21.2894 9.60635 21.1777 9.57416 21.0602C9.24835 19.813 8.99992 18.5468 8.8303 17.269C8.51901 17.2761 8.21729 17.3779 7.9654 17.5609C7.7135 17.744 7.52341 17.9995 7.4205 18.2933L6.83203 19.9654C7.4749 20.7333 8.23647 21.3934 9.0879 21.9207ZM14.3892 3.83972C14.272 3.77075 14.1384 3.73438 14.0024 3.73438C13.8663 3.73438 13.7328 3.77075 13.6155 3.83972C13.1941 4.08213 12.7933 4.3587 12.4171 4.66666H15.5844C15.2094 4.35862 14.8097 4.08203 14.3892 3.83972ZM18.2775 21.3915L18.9131 21.9207C19.7654 21.3935 20.5278 20.7332 21.1713 19.9649L20.5833 18.2943C20.4806 17.9995 20.2903 17.7432 20.0378 17.5597C19.7853 17.3762 19.4827 17.2743 19.1707 17.2676C19.0002 18.5471 18.7509 19.8148 18.424 21.0635C18.3928 21.1798 18.3433 21.2906 18.2775 21.3915Z" fill="#ED2A00"></path><path d="M1.19082 15.3778L2.76536 16.0064C2.83653 16.0348 2.89961 16.0803 2.94902 16.1389C2.99842 16.1975 3.03263 16.2674 3.04862 16.3424C3.33227 17.6738 3.85806 18.9417 4.59982 20.0832C4.6415 20.1474 4.66674 20.2208 4.67334 20.2971C4.67993 20.3733 4.66766 20.45 4.63762 20.5204L3.97122 22.0828C3.94539 22.1349 3.93488 22.1933 3.94091 22.2511C3.94694 22.3089 3.96927 22.3639 4.00529 22.4095C4.48562 22.9809 5.01429 23.5099 5.58542 23.9906C5.63102 24.0279 5.6863 24.0515 5.7448 24.0586C5.8033 24.0657 5.86261 24.056 5.91582 24.0307L7.47869 23.3638C7.54903 23.3336 7.62578 23.3212 7.70208 23.3278C7.77838 23.3344 7.85185 23.3597 7.91596 23.4016C9.05738 24.1434 10.3254 24.6692 11.6568 24.9528C11.7317 24.9688 11.8016 25.003 11.8602 25.0525C11.9188 25.1019 11.9643 25.1649 11.9928 25.2361L12.6228 26.8125C12.6438 26.8666 12.6789 26.9141 12.7245 26.9501C12.77 26.9861 12.8243 27.0093 12.8818 27.0174C13.6241 27.0846 14.371 27.0846 15.1134 27.0174C15.1721 27.0101 15.2277 26.9869 15.2743 26.9504C15.3209 26.9139 15.3568 26.8654 15.378 26.8102L16.0066 25.2342C16.035 25.1631 16.0805 25.1 16.1391 25.0506C16.1977 25.0012 16.2676 24.967 16.3426 24.951C17.674 24.6673 18.9419 24.1415 20.0834 23.3998C20.1476 23.3581 20.221 23.3329 20.2973 23.3263C20.3735 23.3197 20.4502 23.3319 20.5206 23.362L22.0826 24.0284C22.1345 24.0546 22.193 24.0653 22.2509 24.0593C22.3088 24.0533 22.3638 24.0307 22.4092 23.9943C22.9795 23.514 23.5072 22.9853 23.9866 22.4142C24.0243 22.3688 24.0481 22.3135 24.0553 22.2549C24.0625 22.1964 24.0528 22.137 24.0272 22.0838L23.3603 20.5209C23.3302 20.4505 23.318 20.3738 23.3246 20.2976C23.3312 20.2213 23.3564 20.1478 23.3981 20.0836C24.1399 18.9422 24.6656 17.6742 24.9493 16.3428C24.9653 16.2679 24.9995 16.198 25.0489 16.1394C25.0983 16.0808 25.1614 16.0353 25.2326 16.0068L26.809 15.3768C26.863 15.3558 26.9105 15.3207 26.9465 15.2751C26.9825 15.2296 27.0058 15.1753 27.0138 15.1178C27.0811 14.3755 27.0811 13.6286 27.0138 12.8862V12.8797C27.0058 12.8219 26.9823 12.7672 26.946 12.7215C26.9096 12.6758 26.8616 12.6407 26.8071 12.6198L25.2344 11.993C25.1632 11.9646 25.1001 11.919 25.0507 11.8603C25.0013 11.8016 24.9671 11.7316 24.9512 11.6566C24.6677 10.3251 24.1419 9.05711 23.4 7.91578C23.3583 7.85158 23.333 7.77812 23.3264 7.70187C23.3199 7.62561 23.3321 7.54891 23.3622 7.47851L24.0286 5.91658C24.0542 5.86442 24.0646 5.80606 24.0585 5.74826C24.0524 5.69045 24.03 5.63555 23.994 5.58991C23.5138 5.01983 22.9853 4.49225 22.4144 4.01305C22.3687 3.97563 22.3134 3.95198 22.2548 3.94488C22.1962 3.93777 22.1368 3.94749 22.0835 3.97291L20.5211 4.63744C20.4507 4.66749 20.374 4.67975 20.2977 4.67316C20.2215 4.66657 20.148 4.64132 20.0838 4.59965C18.9425 3.8577 17.6745 3.3319 16.343 3.04844C16.2681 3.03245 16.1982 2.99824 16.1396 2.94884C16.081 2.89944 16.0355 2.83636 16.007 2.76518L15.377 1.18878C15.356 1.13504 15.3212 1.08781 15.276 1.05191C15.2309 1.01601 15.177 0.992706 15.1199 0.984378C14.3776 0.916666 13.6306 0.916666 12.8883 0.984378C12.8296 0.99166 12.774 1.01474 12.7274 1.05114C12.6808 1.08755 12.645 1.13593 12.6237 1.19111L11.9932 2.76518C11.9648 2.83636 11.9193 2.89944 11.8607 2.94884C11.8021 2.99824 11.7322 3.03245 11.6572 3.04844C10.3258 3.3319 9.05776 3.8577 7.91642 4.59965C7.85223 4.64132 7.77876 4.66657 7.70251 4.67316C7.62626 4.67975 7.54955 4.66749 7.47916 4.63744L5.91676 3.97105C5.8646 3.94549 5.8063 3.93513 5.74853 3.94115C5.69076 3.94718 5.63585 3.96934 5.59009 4.00511C5.02044 4.48597 4.4929 5.0146 4.01322 5.58525C3.9758 5.63079 3.95214 5.68608 3.94503 5.7446C3.93792 5.80312 3.94766 5.86246 3.97309 5.91565L4.63996 7.47851C4.67 7.54891 4.68226 7.62561 4.67567 7.70187C4.66908 7.77812 4.64383 7.85158 4.60216 7.91578C3.86021 9.05711 3.33441 10.3251 3.05096 11.6566C3.03503 11.7316 3.00086 11.8016 2.95145 11.8603C2.90204 11.919 2.83892 11.9646 2.76769 11.993L1.18896 12.6226C1.13509 12.6436 1.08778 12.6786 1.05187 12.724C1.01596 12.7693 0.992728 12.8234 0.984555 12.8806C0.916607 13.6233 0.916607 14.3706 0.984555 15.1132C0.991796 15.1718 1.0148 15.2274 1.05112 15.274C1.08745 15.3206 1.13573 15.3564 1.19082 15.3778ZM11.7832 3.97851C12.2105 3.62446 12.6668 3.30694 13.1473 3.02931C13.4067 2.87812 13.7015 2.79846 14.0018 2.79846C14.302 2.79846 14.5968 2.87812 14.8562 3.02931C15.3359 3.30611 15.7913 3.62302 16.2175 3.97665C18.6877 4.52286 20.8692 5.96188 22.3436 8.01765C23.818 10.0734 24.4815 12.6012 24.2068 15.1161C23.932 17.631 22.7384 19.9559 20.8549 21.6448C18.9714 23.3338 16.5307 24.2678 14.0008 24.2678C11.471 24.2678 9.0302 23.3338 7.1467 21.6448C5.2632 19.9559 4.06961 17.631 3.79487 15.1161C3.52014 12.6012 4.18362 10.0734 5.65803 8.01765C7.13245 5.96188 9.31398 4.52286 11.7842 3.97665L11.7832 3.97851Z" fill="#ED2A00"></path></svg>