<svg xmlns="http://www.w3.org/2000/svg" width="26" height="26" viewBox="0 0 26 26" fill="none"><path d="M16.5 21.7369C16.0555 21.9154 15.5961 22.065 15.121 22.1744L14.9285 24.6821C14.9166 24.8366 14.8468 24.981 14.7331 25.0863C14.6194 25.1915 14.4701 25.25 14.3151 25.25H11.684C11.5293 25.25 11.3802 25.1916 11.2667 25.0865C11.1531 24.9814 11.0834 24.8373 11.0715 24.683L10.879 22.1753C9.86446 21.9414 8.89618 21.5395 8.01425 20.9861L6.10237 22.625C5.98479 22.7259 5.83345 22.7786 5.67865 22.7726C5.52385 22.7666 5.37704 22.7023 5.26762 22.5926L3.40738 20.7324C3.2979 20.6229 3.23376 20.4761 3.22775 20.3213C3.22175 20.1666 3.27433 20.0153 3.375 19.8976L5.01388 17.9858C4.46127 17.1034 4.0594 16.1353 3.82475 15.121L1.317 14.9285C1.16264 14.9164 1.01853 14.8465 0.913426 14.7328C0.808324 14.6191 0.749966 14.47 0.75 14.3151V11.684C0.75 11.3629 0.997625 11.096 1.317 11.0715L3.82475 10.879C4.05862 9.86446 4.46054 8.89618 5.01388 8.01425L3.37587 6.10237C3.27515 5.98496 3.22245 5.83386 3.22829 5.67927C3.23413 5.52468 3.29808 5.37799 3.40738 5.2685L5.26762 3.40825C5.37725 3.29896 5.524 3.23494 5.67867 3.22895C5.83335 3.22295 5.98462 3.2754 6.10237 3.37587L8.01425 5.01475C8.89656 4.46214 9.86471 4.06028 10.879 3.82562L11.0715 1.31787C11.0834 1.16336 11.1532 1.01903 11.2669 0.913747C11.3806 0.808463 11.5299 0.749983 11.6849 0.75H14.316C14.6371 0.75 14.904 0.997625 14.9285 1.317L14.9399 1.46313C14.3131 2.42446 13.9498 3.53351 13.8862 4.67934C13.8227 5.82517 14.0611 6.96761 14.5776 7.99238C13.8557 7.76507 13.0932 7.69653 12.3423 7.79146C11.5915 7.8864 10.87 8.14255 10.2274 8.54238C9.58477 8.94221 9.03621 9.47625 8.61928 10.1079C8.20235 10.7396 7.92692 11.4539 7.81187 12.2019C7.69682 12.95 7.74487 13.7141 7.95272 14.4418C8.16057 15.1696 8.52332 15.8438 9.01609 16.4182C9.50886 16.9926 10.12 17.4538 10.8076 17.7699C11.4953 18.0861 12.2432 18.2499 13 18.25C14.2929 18.2505 15.5401 17.7712 16.5 16.9051V21.7369Z" fill="#ED2A00"></path><path d="M22.6243 9.3163V23.0634C22.6243 23.6436 22.3938 24.2 21.9836 24.6102C21.5733 25.0205 21.0169 25.2509 20.4368 25.2509C19.8566 25.2509 19.3002 25.0205 18.89 24.6102C18.4797 24.2 18.2493 23.6436 18.2493 23.0634V9.3163C17.4727 8.92049 16.8183 8.32097 16.3562 7.5819C15.8941 6.84283 15.6416 5.99203 15.6258 5.12053C15.61 4.24902 15.8314 3.38961 16.2664 2.63426C16.7014 1.87891 17.3336 1.25604 18.0953 0.832302C18.1627 0.795552 18.2493 0.848052 18.2493 0.925052V6.00093L20.4368 6.87593L22.6243 6.00093V0.925052C22.6243 0.848052 22.7109 0.795552 22.7783 0.833177C23.5403 1.25658 24.1728 1.87929 24.608 2.63461C25.0432 3.38993 25.2647 4.2494 25.2489 5.12099C25.2331 5.99258 24.9805 6.84344 24.5181 7.58247C24.0558 8.32149 23.4011 8.92083 22.6243 9.3163Z" fill="#ED2A00"></path></svg>